<svg viewBox="0 0 3840 2160" xmlns="http://www.w3.org/2000/svg"><defs><filter id="b" x="-200%" y="-200%" width="500%" height="500%"><feGaussianBlur in="SourceGraphic" stdDeviation="20"/></filter></defs><path fill="#000336" d="M0 0h3840v2160H0z"/><ellipse cx="143.667" cy="44.711" rx="3.167" ry="2.989" fill="#fff" opacity="-.129"/><ellipse cx="264.22" cy="106.616" rx="1.97" ry="1.718" fill="#fff" opacity=".461"/><ellipse cx="357.29" cy="74.695" rx="2.875" ry="2.772" fill="#fff" opacity=".881"/><ellipse cx="562.007" cy="121.565" rx="2.119" ry="2.102" fill="#fff" opacity=".185"/><ellipse cx="645.282" cy="108.419" rx="2.777" ry="2.557" fill="#fff" opacity=".654"/><ellipse cx="822.905" cy="31.738" rx="2.748" ry="2.655" fill="#fff" opacity=".817"/><ellipse cx="993.54" cy="118.04" rx="3.169" ry="2.719" fill="#fff" opacity=".383"/><ellipse cx="1213.584" cy="88.859" rx="1.947" ry="1.797" fill="#fff" opacity="-.071"/><ellipse cx="1308.465" cy="110.697" rx="1.988" ry="1.885" fill="#fff" opacity=".649"/><ellipse cx="1480.15" cy="86.95" rx="3.118" ry="2.826" fill="#fff" opacity=".676"/><ellipse cx="1638.42" cy="8.457" rx="3.185" ry="2.79" fill="#fff" opacity="-.021"/><ellipse cx="1846.93" cy="118.949" rx="3.497" ry="3.174" fill="#fff" opacity=".205"/><ellipse cx="2014.236" cy="57.424" rx="2.112" ry="1.706" fill="#fff" opacity=".453"/><ellipse cx="2142.771" cy="101.941" rx="3.18" ry="3.142" fill="#fff" opacity=".532"/><ellipse cx="2266.945" cy="134.643" rx="2.068" ry="1.857" fill="#fff" opacity=".155"/><ellipse cx="2433.555" cy="133.319" rx="3.352" ry="2.994" fill="#fff" opacity=".336"/><ellipse cx="2691.482" cy="8.62" rx="2.42" ry="1.967" fill="#fff" opacity=".532"/><ellipse cx="2795.266" cy="129.258" rx="3.575" ry="3.301" fill="#fff" opacity=".436"/><ellipse cx="2890.476" cy="45.412" rx="2.253" ry="2.118" fill="#fff" opacity=".405"/><ellipse cx="3163.507" cy="82.457" rx="2.982" ry="2.855" fill="#fff" opacity=".338"/><ellipse cx="3240.699" cy="134.323" rx="2.865" ry="2.685" fill="#fff" opacity=".049"/><ellipse cx="3373.802" cy="125.997" rx="2.1" ry="2.013" fill="#fff" opacity="-.095"/><ellipse cx="3624.326" cy="79.726" rx="2.332" ry="2.228" fill="#fff" opacity=".737"/><ellipse cx="3693.193" cy="52.42" rx="2.735" ry="2.388" fill="#fff" opacity=".665"/><ellipse cx="102.569" cy="243.811" rx="2.527" ry="2.279" fill="#fff" opacity=".187"/><ellipse cx="296.759" cy="154.629" rx="1.721" ry="1.685" fill="#fff" opacity=".704"/><ellipse cx="451.918" cy="178.068" rx="3.457" ry="3.213" fill="#fff" opacity=".429"/><ellipse cx="626.488" cy="168.06" rx="3.663" ry="3.307" fill="#fff" opacity=".452"/><ellipse cx="674.718" cy="261.702" rx="2.56" ry="2.336" fill="#fff" opacity=".548"/><ellipse cx="902.275" cy="253.04" rx="3.501" ry="3.21" fill="#fff" opacity="-.249"/><ellipse cx="970.001" cy="209.969" rx="3.69" ry="3.279" fill="#fff" opacity=".766"/><ellipse cx="1187.999" cy="178.576" rx="3.766" ry="3.295" fill="#fff" opacity=".294"/><ellipse cx="1420.842" cy="226.816" rx="3.469" ry="3.309" fill="#fff" opacity=".64"/><ellipse cx="1526.781" cy="150.963" rx="2.623" ry="2.162" fill="#fff" opacity=".102"/><ellipse cx="1600.076" cy="137.244" rx="1.83" ry="1.721" fill="#fff" opacity=".045"/><ellipse cx="1919.957" cy="187.694" rx="1.965" ry="1.866" fill="#fff" opacity=".844"/><ellipse cx="2017.55" cy="220.32" rx="2.64" ry="2.498" fill="#fff" opacity=".652"/><ellipse cx="2082.13" cy="144.9" rx="2.475" ry="2.243" fill="#fff" opacity=".426"/><ellipse cx="2261.264" cy="149.785" rx="3.632" ry="3.195" fill="#fff" opacity=".687"/><ellipse cx="2490.357" cy="200.23" rx="3.605" ry="3.166" fill="#fff" opacity=".097"/><ellipse cx="2667.044" cy="184.114" rx="2.645" ry="2.518" fill="#fff" opacity=".313"/><ellipse cx="2742.036" cy="249.079" rx="2.545" ry="2.436" fill="#fff" opacity=".643"/><ellipse cx="3034.456" cy="157.307" rx="2.135" ry="1.743" fill="#fff" opacity=".471"/><ellipse cx="3177.43" cy="238.736" rx="2.611" ry="2.132" fill="#fff" opacity="-.097"/><ellipse cx="3276.617" cy="194.113" rx="2.666" ry="2.213" fill="#fff" opacity=".248"/><ellipse cx="3513.079" cy="135.161" rx="2.051" ry="1.936" fill="#fff" opacity=".924"/><ellipse cx="3535.109" cy="177.338" rx="3.259" ry="2.884" fill="#fff" opacity=".086"/><ellipse cx="3812.16" cy="166.613" rx="2.326" ry="1.897" fill="#fff" opacity=".167"/><ellipse cx="153.332" cy="371.302" rx="2.11" ry="2.028" fill="#fff" opacity=".65"/><ellipse cx="237.638" cy="395.614" rx="3.649" ry="3.352" fill="#fff" opacity=".748"/><ellipse cx="406.359" cy="353.261" rx="3.409" ry="3.302" fill="#fff" opacity=".338"/><ellipse cx="608.119" cy="383.987" rx="1.779" ry="1.694" fill="#fff" opacity=".73"/><ellipse cx="795.027" cy="373.654" rx="2.92" ry="2.696" fill="#fff" opacity=".904"/><ellipse cx="882.921" cy="364.888" rx="2.207" ry="1.928" fill="#fff" opacity=".962"/><ellipse cx="965.22" cy="321.292" rx="2.938" ry="2.505" fill="#fff" opacity=".542"/><ellipse cx="1168.627" cy="389.311" rx="2.975" ry="2.683" fill="#fff" opacity=".178"/><ellipse cx="1362.67" cy="278.815" rx="2.69" ry="2.474" fill="#fff" opacity=".6"/><ellipse cx="1574.084" cy="294.282" rx="3.011" ry="2.768" fill="#fff" opacity="-.053"/><ellipse cx="1631.84" cy="345.926" rx="2.663" ry="2.201" fill="#fff" opacity=".345"/><ellipse cx="1892.031" cy="347.727" rx="3.521" ry="3.087" fill="#fff" opacity=".115"/><ellipse cx="1979.903" cy="318.071" rx="1.923" ry="1.776" fill="#fff" opacity=".762"/><ellipse cx="2233.244" cy="376.195" rx="2.268" ry="1.866" fill="#fff" opacity="-.025"/><ellipse cx="2297.954" cy="315.266" rx="2.824" ry="2.56" fill="#fff" opacity=".423"/><ellipse cx="2476.568" cy="400.836" rx="3.327" ry="3.302" fill="#fff" opacity=".133"/><ellipse cx="2713.672" cy="313.44" rx="2.911" ry="2.545" fill="#fff" opacity=".461"/><ellipse cx="2869.777" cy="404.195" rx="2.634" ry="2.198" fill="#fff" opacity=".371"/><ellipse cx="2969.686" cy="326.865" rx="2.643" ry="2.612" fill="#fff" opacity=".35"/><ellipse cx="3094.417" cy="344.17" rx="2.23" ry="2.078" fill="#fff" opacity=".345"/><ellipse cx="3252.44" cy="299.376" rx="2.818" ry="2.391" fill="#fff" opacity="-.059"/><ellipse cx="3501.744" cy="318.607" rx="2.783" ry="2.752" fill="#fff" opacity=".94"/><ellipse cx="3549.27" cy="374.245" rx="3.555" ry="3.272" fill="#fff" opacity=".668"/><ellipse cx="3715.152" cy="294.208" rx="3.452" ry="3.239" fill="#fff" opacity=".777"/><ellipse cx="93.143" cy="414.514" rx="3.084" ry="2.987" fill="#fff" opacity="-.122"/><ellipse cx="253.156" cy="474.569" rx="2.782" ry="2.304" fill="#fff" opacity=".621"/><ellipse cx="364.765" cy="507.864" rx="3.04" ry="2.65" fill="#fff" opacity=".077"/><ellipse cx="480.98" cy="506.567" rx="3.458" ry="3.086" fill="#fff" opacity="-.097"/><ellipse cx="769.673" cy="406.483" rx="3.478" ry="2.99" fill="#fff" opacity=".042"/><ellipse cx="858.006" cy="517.216" rx="2.747" ry="2.626" fill="#fff" opacity=".523"/><ellipse cx="963.441" cy="464.873" rx="2.726" ry="2.266" fill="#fff" opacity=".737"/><ellipse cx="1141.52" cy="493.474" rx="3.012" ry="2.571" fill="#fff" opacity=".281"/><ellipse cx="1429.519" cy="476.902" rx="2.757" ry="2.668" fill="#fff" opacity=".479"/><ellipse cx="1567.802" cy="537.636" rx="3.017" ry="2.832" fill="#fff" opacity=".326"/><ellipse cx="1646.883" cy="419.122" rx="3.049" ry="2.867" fill="#fff" opacity=".754"/><ellipse cx="1912.294" cy="462.661" rx="2.368" ry="2.286" fill="#fff" opacity=".55"/><ellipse cx="2007.599" cy="425.205" rx="3.498" ry="3.284" fill="#fff" opacity="-.024"/><ellipse cx="2162.515" cy="527.213" rx="2.061" ry="1.897" fill="#fff" opacity=".707"/><ellipse cx="2331.542" cy="431.956" rx="3.016" ry="2.635" fill="#fff" opacity=".089"/><ellipse cx="2453.195" cy="475.053" rx="3.134" ry="2.84" fill="#fff" opacity=".224"/><ellipse cx="2683.239" cy="469.562" rx="3.632" ry="3.155" fill="#fff" opacity=".731"/><ellipse cx="2783.293" cy="426.478" rx="2.583" ry="2.282" fill="#fff" opacity=".677"/><ellipse cx="3032.199" cy="478.752" rx="2.112" ry="2.003" fill="#fff" opacity=".712"/><ellipse cx="3070.814" cy="447.954" rx="3.28" ry="2.788" fill="#fff" opacity=".506"/><ellipse cx="3327.629" cy="432.506" rx="2.263" ry="2.078" fill="#fff" opacity=".338"/><ellipse cx="3420.165" cy="477.906" rx="3.016" ry="2.589" fill="#fff" opacity=".768"/><ellipse cx="3652.875" cy="476.167" rx="2.681" ry="2.512" fill="#fff" opacity=".522"/><ellipse cx="3808.632" cy="446.497" rx="3.045" ry="2.924" fill="#fff" opacity=".047"/><ellipse cx="19.8" cy="568.852" rx="2.605" ry="2.497" fill="#fff" opacity="-.102"/><ellipse cx="162.364" cy="567.629" rx="2.4" ry="2.08" fill="#fff" opacity=".109"/><ellipse cx="366.753" cy="597.301" rx="2.876" ry="2.522" fill="#fff" opacity="-.211"/><ellipse cx="636.136" cy="543.301" rx="2.034" ry="1.913" fill="#fff" opacity=".779"/><ellipse cx="707.801" cy="614.935" rx="2.59" ry="2.272" fill="#fff" opacity=".216"/><ellipse cx="868.138" cy="625.791" rx="3.16" ry="2.996" fill="#fff" opacity=".137"/><ellipse cx="1096.476" cy="606.609" rx="3.231" ry="2.812" fill="#fff" opacity="-.074"/><ellipse cx="1245.098" cy="635.595" rx="2.691" ry="2.672" fill="#fff" opacity="-.089"/><ellipse cx="1340.908" cy="579.212" rx="3.324" ry="3.028" fill="#fff" opacity=".945"/><ellipse cx="1440.926" cy="579.024" rx="3.167" ry="2.945" fill="#fff" opacity=".887"/><ellipse cx="1724.511" cy="558.329" rx="2.674" ry="2.206" fill="#fff" opacity=".116"/><ellipse cx="1778.991" cy="567.784" rx="2.709" ry="2.507" fill="#fff" opacity=".739"/><ellipse cx="1932.448" cy="543.586" rx="1.98" ry="1.937" fill="#fff" opacity=".165"/><ellipse cx="2228.12" cy="656.104" rx="3.479" ry="2.987" fill="#fff" opacity=".824"/><ellipse cx="2260.508" cy="597.258" rx="2.347" ry="2.023" fill="#fff" opacity=".555"/><ellipse cx="2533.79" cy="551.598" rx="3.489" ry="3.062" fill="#fff" opacity="-.074"/><ellipse cx="2711.908" cy="621.858" rx="3.183" ry="3.121" fill="#fff" opacity=".647"/><ellipse cx="2843.035" cy="563.77" rx="3.271" ry="2.804" fill="#fff" opacity=".573"/><ellipse cx="2985.233" cy="626.1" rx="2.006" ry="1.815" fill="#fff" opacity=".176"/><ellipse cx="3152.943" cy="555.805" rx="3.177" ry="2.695" fill="#fff" opacity=".701"/><ellipse cx="3348.626" cy="612.049" rx="2.943" ry="2.605" fill="#fff" opacity=".82"/><ellipse cx="3364.921" cy="570.875" rx="3.362" ry="2.915" fill="#fff" opacity=".77"/><ellipse cx="3576.466" cy="540.362" rx="2.383" ry="1.917" fill="#fff" opacity=".306"/><ellipse cx="3770.661" cy="642.381" rx="2.901" ry="2.777" fill="#fff" opacity=".615"/><ellipse cx="123.517" cy="803.769" rx="3.132" ry="3.073" fill="#fff" opacity=".25"/><ellipse cx="206.491" cy="783.416" rx="2.525" ry="2.025" fill="#fff" opacity=".103"/><ellipse cx="407.058" cy="731.86" rx="1.798" ry="1.769" fill="#fff" opacity="-.023"/><ellipse cx="612.405" cy="720.54" rx="3.271" ry="2.965" fill="#fff" opacity=".155"/><ellipse cx="654.977" cy="683.513" rx="2.238" ry="2.131" fill="#fff" opacity=".124"/><ellipse cx="888.45" cy="746.698" rx="3.569" ry="3.178" fill="#fff" opacity=".377"/><ellipse cx="1088.011" cy="809.046" rx="3.099" ry="2.823" fill="#fff" opacity=".381"/><ellipse cx="1166.146" cy="724.16" rx="3.519" ry="3.085" fill="#fff" opacity=".583"/><ellipse cx="1298.849" cy="774.868" rx="2.477" ry="2.296" fill="#fff" opacity=".915"/><ellipse cx="1495.058" cy="726.299" rx="2.372" ry="2.253" fill="#fff" opacity=".41"/><ellipse cx="1695.867" cy="782.846" rx="3.727" ry="3.316" fill="#fff" opacity=".907"/><ellipse cx="1889.817" cy="745.001" rx="1.757" ry="1.708" fill="#fff" opacity=".723"/><ellipse cx="1928.861" cy="697.2" rx="2.453" ry="2.222" fill="#fff" opacity=".545"/><ellipse cx="2231.088" cy="762.721" rx="3.123" ry="2.738" fill="#fff" opacity=".739"/><ellipse cx="2277.485" cy="755.596" rx="3.438" ry="3.32" fill="#fff" opacity=".798"/><ellipse cx="2417.399" cy="784.894" rx="3.115" ry="3.098" fill="#fff" opacity=".084"/><ellipse cx="2588.084" cy="725.674" rx="2.582" ry="2.152" fill="#fff" opacity=".618"/><ellipse cx="2733.753" cy="756.809" rx="3.175" ry="2.933" fill="#fff" opacity=".274"/><ellipse cx="2904.496" cy="724.377" rx="2.756" ry="2.745" fill="#fff" opacity=".469"/><ellipse cx="3085.643" cy="783.696" rx="1.822" ry="1.802" fill="#fff" opacity=".02"/><ellipse cx="3331.025" cy="733.081" rx="3.481" ry="3.154" fill="#fff" opacity=".615"/><ellipse cx="3414.454" cy="771.324" rx="3.443" ry="2.95" fill="#fff" opacity=".448"/><ellipse cx="3581.271" cy="686.512" rx="2.676" ry="2.598" fill="#fff" opacity="-.145"/><ellipse cx="3731.592" cy="695.988" rx="3.378" ry="3.222" fill="#fff" opacity=".447"/><ellipse cx="149.403" cy="910.453" rx="2.516" ry="2.088" fill="#fff" opacity=".466"/><ellipse cx="247.982" cy="887.84" rx="2.569" ry="2.441" fill="#fff" opacity=".349"/><ellipse cx="384.271" cy="829.433" rx="3.122" ry="2.792" fill="#fff" opacity=".643"/><ellipse cx="490.043" cy="837.061" rx="2.954" ry="2.575" fill="#fff" opacity="-.108"/><ellipse cx="644.587" cy="810.85" rx="3.289" ry="2.88" fill="#fff" opacity=".387"/><ellipse cx="854.278" cy="877.249" rx="3.25" ry="2.766" fill="#fff" opacity=".137"/><ellipse cx="1079.688" cy="854.14" rx="2.233" ry="2.101" fill="#fff" opacity=".252"/><ellipse cx="1262.892" cy="830.377" rx="3.105" ry="3.043" fill="#fff" opacity=".18"/><ellipse cx="1415.736" cy="900.307" rx="2.806" ry="2.603" fill="#fff" opacity=".169"/><ellipse cx="1503.711" cy="848.391" rx="3.009" ry="2.633" fill="#fff" opacity=".518"/><ellipse cx="1601.999" cy="901.389" rx="2.192" ry="1.811" fill="#fff" opacity=".265"/><ellipse cx="1770.786" cy="884.503" rx="2.835" ry="2.338" fill="#fff" opacity="-.016"/><ellipse cx="2068.345" cy="926.578" rx="3.089" ry="2.764" fill="#fff" opacity=".657"/><ellipse cx="2152.385" cy="922.849" rx="2.816" ry="2.343" fill="#fff" opacity=".334"/><ellipse cx="2255.138" cy="882.614" rx="2.807" ry="2.71" fill="#fff" opacity=".589"/><ellipse cx="2461.433" cy="884.162" rx="2.013" ry="1.683" fill="#fff" opacity=".222"/><ellipse cx="2660.294" cy="863.214" rx="2.74" ry="2.25" fill="#fff" opacity=".71"/><ellipse cx="2729.313" cy="823.067" rx="3.461" ry="3.065" fill="#fff" opacity=".143"/><ellipse cx="2948.199" cy="840.778" rx="2.054" ry="1.743" fill="#fff" opacity=".069"/><ellipse cx="3183.008" cy="915.111" rx="2.195" ry="2.089" fill="#fff" opacity=".521"/><ellipse cx="3283.666" cy="823.248" rx="3.138" ry="3.072" fill="#fff" opacity=".167"/><ellipse cx="3365.44" cy="913.827" rx="2.696" ry="2.652" fill="#fff" opacity=".146"/><ellipse cx="3631.854" cy="901.545" rx="3.268" ry="2.89" fill="#fff" opacity=".033"/><ellipse cx="3736.009" cy="907.706" rx="2.618" ry="2.222" fill="#fff" opacity=".129"/><ellipse cx="148.979" cy="1045.781" rx="3.142" ry="2.968" fill="#fff" opacity=".293"/><ellipse cx="270.71" cy="993.663" rx="1.88" ry="1.748" fill="#fff" opacity="-.154"/><ellipse cx="334.871" cy="952.507" rx="2.881" ry="2.67" fill="#fff" opacity=".074"/><ellipse cx="614.47" cy="1031.28" rx="2.547" ry="2.437" fill="#fff" opacity=".734"/><ellipse cx="660.817" cy="1018.902" rx="3.806" ry="3.347" fill="#fff" opacity=".398"/><ellipse cx="892.07" cy="1057.487" rx="3.204" ry="3.119" fill="#fff" opacity="-.191"/><ellipse cx="1006.674" cy="1049.728" rx="2.013" ry="1.736" fill="#fff" opacity=".785"/><ellipse cx="1215.523" cy="1042.319" rx="2.282" ry="2.085" fill="#fff" opacity=".345"/><ellipse cx="1370.854" cy="1024.089" rx="2.922" ry="2.713" fill="#fff" opacity=".065"/><ellipse cx="1490.592" cy="968.2" rx="3.295" ry="3.032" fill="#fff" opacity="-.103"/><ellipse cx="1678.303" cy="1000.384" rx="2.047" ry="1.993" fill="#fff" opacity=".036"/><ellipse cx="1869.019" cy="1002.021" rx="1.94" ry="1.68" fill="#fff" opacity="-.146"/><ellipse cx="2000.487" cy="1028.549" rx="2.499" ry="2.133" fill="#fff" opacity=".27"/><ellipse cx="2232.811" cy="999.216" rx="2.161" ry="2.111" fill="#fff" opacity=".373"/><ellipse cx="2371.722" cy="1064.4" rx="2.95" ry="2.474" fill="#fff" opacity=".22"/><ellipse cx="2539.947" cy="960.872" rx="2.312" ry="2.257" fill="#fff" opacity=".103"/><ellipse cx="2701.577" cy="1054.353" rx="1.992" ry="1.872" fill="#fff" opacity=".434"/><ellipse cx="2775.091" cy="1003.972" rx="2.417" ry="1.982" fill="#fff" opacity=".944"/><ellipse cx="2884.696" cy="1076.721" rx="2.372" ry="2.164" fill="#fff" opacity=".256"/><ellipse cx="3041.509" cy="1064.534" rx="2.366" ry="2.131" fill="#fff" opacity="-.219"/><ellipse cx="3257.838" cy="1031.769" rx="3.133" ry="2.97" fill="#fff" opacity=".253"/><ellipse cx="3476.763" cy="957.093" rx="2.967" ry="2.5" fill="#fff" opacity=".555"/><ellipse cx="3605.166" cy="1042.315" rx="3.048" ry="2.858" fill="#fff" opacity=".867"/><ellipse cx="3803.686" cy="1067.982" rx="1.959" ry="1.888" fill="#fff" opacity=".837"/><ellipse cx="104.053" cy="1173.115" rx="3.281" ry="3.278" fill="#fff" opacity=".77"/><ellipse cx="271.121" cy="1123.629" rx="2.989" ry="2.983" fill="#fff" opacity=".015"/><ellipse cx="455.118" cy="1133.395" rx="3.67" ry="3.274" fill="#fff" opacity="-.04"/><ellipse cx="552.378" cy="1197.478" rx="2.269" ry="1.864" fill="#fff" opacity=".163"/><ellipse cx="716.55" cy="1168.117" rx="2.349" ry="2.083" fill="#fff" opacity=".232"/><ellipse cx="891.563" cy="1114.7" rx="1.848" ry="1.805" fill="#fff" opacity=".242"/><ellipse cx="990.185" cy="1124.486" rx="1.984" ry="1.954" fill="#fff" opacity=".473"/><ellipse cx="1242.236" cy="1125.51" rx="1.757" ry="1.682" fill="#fff" opacity=".336"/><ellipse cx="1355.858" cy="1181.236" rx="2.537" ry="2.21" fill="#fff" opacity=".698"/><ellipse cx="1540.426" cy="1125.958" rx="3.328" ry="3.257" fill="#fff" opacity=".369"/><ellipse cx="1716.144" cy="1117.227" rx="2.802" ry="2.317" fill="#fff" opacity="-.206"/><ellipse cx="1889.888" cy="1203.832" rx="3.431" ry="3.109" fill="#fff" opacity=".369"/><ellipse cx="1996.905" cy="1171.083" rx="3.074" ry="2.599" fill="#fff" opacity=".708"/><ellipse cx="2095.553" cy="1081.671" rx="3.21" ry="2.866" fill="#fff" opacity=".353"/><ellipse cx="2320.241" cy="1099.222" rx="1.953" ry="1.852" fill="#fff" opacity=".492"/><ellipse cx="2540.477" cy="1202.495" rx="1.895" ry="1.84" fill="#fff" opacity=".433"/><ellipse cx="2709.185" cy="1096.958" rx="3.087" ry="3.069" fill="#fff" opacity=".448"/><ellipse cx="2800.82" cy="1212.022" rx="2.837" ry="2.814" fill="#fff" opacity=".241"/><ellipse cx="2915.95" cy="1207.141" rx="2.604" ry="2.574" fill="#fff" opacity=".381"/><ellipse cx="3080.995" cy="1086.719" rx="2.577" ry="2.429" fill="#fff" opacity=".477"/><ellipse cx="3240.76" cy="1122.893" rx="2.732" ry="2.309" fill="#fff" opacity=".703"/><ellipse cx="3367.72" cy="1085.876" rx="3.175" ry="3.073" fill="#fff" opacity=".027"/><ellipse cx="3548.728" cy="1135.846" rx="2.602" ry="2.471" fill="#fff" opacity=".622"/><ellipse cx="3828.598" cy="1171.107" rx="2.091" ry="1.825" fill="#fff" opacity=".213"/><ellipse cx="5.119" cy="1219.091" rx="2.727" ry="2.431" fill="#fff" opacity=".679"/><ellipse cx="174.348" cy="1283.115" rx="3.239" ry="3.207" fill="#fff" opacity="-.165"/><ellipse cx="421.34" cy="1215.15" rx="2.233" ry="1.978" fill="#fff" opacity="-.024"/><ellipse cx="566.326" cy="1260.179" rx="3.094" ry="2.951" fill="#fff" opacity=".535"/><ellipse cx="746.988" cy="1318.938" rx="3.773" ry="3.34" fill="#fff" opacity=".141"/><ellipse cx="832.264" cy="1321.497" rx="2.376" ry="2.343" fill="#fff" opacity=".135"/><ellipse cx="1105.594" cy="1303.503" rx="2.05" ry="1.732" fill="#fff" opacity=".1"/><ellipse cx="1169.194" cy="1245.27" rx="2.241" ry="2.156" fill="#fff" opacity=".226"/><ellipse cx="1333.391" cy="1258.231" rx="3.078" ry="2.848" fill="#fff" opacity=".053"/><ellipse cx="1527.387" cy="1282.887" rx="2.234" ry="1.967" fill="#fff" opacity="-.121"/><ellipse cx="1697.848" cy="1292.392" rx="2.083" ry="2.035" fill="#fff" opacity=".481"/><ellipse cx="1869.987" cy="1218.781" rx="2.353" ry="1.857" fill="#fff" opacity="-.071"/><ellipse cx="2072.215" cy="1281.032" rx="2.114" ry="1.727" fill="#fff" opacity=".028"/><ellipse cx="2117.171" cy="1265.941" rx="2.361" ry="2.238" fill="#fff" opacity=".362"/><ellipse cx="2355.84" cy="1305.254" rx="3.643" ry="3.147" fill="#fff" opacity=".188"/><ellipse cx="2487.057" cy="1252.282" rx="2.289" ry="2.18" fill="#fff" opacity=".343"/><ellipse cx="2592.967" cy="1232.07" rx="2.401" ry="2.289" fill="#fff" opacity=".442"/><ellipse cx="2749.697" cy="1216.336" rx="2.807" ry="2.519" fill="#fff" opacity=".753"/><ellipse cx="3033.199" cy="1296.364" rx="3.404" ry="3" fill="#fff" opacity="-.119"/><ellipse cx="3078.156" cy="1294.688" rx="3.134" ry="2.9" fill="#fff" opacity=".002"/><ellipse cx="3216.915" cy="1247.192" rx="2.112" ry="2.098" fill="#fff" opacity=".03"/><ellipse cx="3466.027" cy="1224.312" rx="3.589" ry="3.247" fill="#fff" opacity=".65"/><ellipse cx="3648.42" cy="1254.446" rx="3.211" ry="3.122" fill="#fff" opacity=".838"/><ellipse cx="3836.368" cy="1256.924" rx="3.516" ry="3.322" fill="#fff" opacity=".584"/><ellipse cx="79.449" cy="1443.675" rx="1.993" ry="1.691" fill="#fff" opacity=".209"/><ellipse cx="248.288" cy="1351.535" rx="2.794" ry="2.784" fill="#fff" opacity="-.074"/><ellipse cx="449.792" cy="1428.833" rx="3.202" ry="2.764" fill="#fff" opacity="-.089"/><ellipse cx="639.401" cy="1379.138" rx="2.57" ry="2.333" fill="#fff" opacity=".655"/><ellipse cx="786.587" cy="1364.577" rx="3.26" ry="3.015" fill="#fff" opacity=".637"/><ellipse cx="814.422" cy="1389.809" rx="2.972" ry="2.517" fill="#fff" opacity=".529"/><ellipse cx="1060.392" cy="1484.042" rx="2.777" ry="2.403" fill="#fff" opacity=".526"/><ellipse cx="1267.144" cy="1408.372" rx="3.227" ry="2.852" fill="#fff" opacity=".708"/><ellipse cx="1438.455" cy="1450.542" rx="2.877" ry="2.391" fill="#fff" opacity=".01"/><ellipse cx="1445.355" cy="1449.471" rx="2.418" ry="2.16" fill="#fff" opacity=".122"/><ellipse cx="1707.109" cy="1388.705" rx="2.269" ry="2.255" fill="#fff" opacity=".34"/><ellipse cx="1840.873" cy="1458.931" rx="2.584" ry="2.44" fill="#fff" opacity=".621"/><ellipse cx="1971.589" cy="1443.142" rx="3.566" ry="3.326" fill="#fff" opacity=".775"/><ellipse cx="2113.059" cy="1449.264" rx="2.765" ry="2.753" fill="#fff" opacity=".148"/><ellipse cx="2277.852" cy="1356.128" rx="2.342" ry="1.991" fill="#fff" opacity=".091"/><ellipse cx="2434.199" cy="1391.952" rx="3.266" ry="2.856" fill="#fff" opacity=".673"/><ellipse cx="2697.96" cy="1386.662" rx="3.511" ry="3.31" fill="#fff" opacity=".25"/><ellipse cx="2759.853" cy="1376.001" rx="3.073" ry="2.844" fill="#fff" opacity=".201"/><ellipse cx="3019.478" cy="1378.601" rx="2.318" ry="2.269" fill="#fff" opacity=".143"/><ellipse cx="3157.494" cy="1388.872" rx="3.069" ry="2.587" fill="#fff" opacity=".185"/><ellipse cx="3230.402" cy="1447.82" rx="2.071" ry="1.681" fill="#fff" opacity=".623"/><ellipse cx="3379.661" cy="1385.044" rx="2.641" ry="2.635" fill="#fff" opacity=".329"/><ellipse cx="3629.538" cy="1372.11" rx="2.542" ry="2.402" fill="#fff" opacity=".488"/><ellipse cx="3786.911" cy="1413.81" rx="2.547" ry="2.54" fill="#fff" opacity=".257"/><ellipse cx="79.262" cy="1485.511" rx="3.052" ry="3.038" fill="#fff" opacity=".843"/><ellipse cx="279.396" cy="1610.158" rx="3.395" ry="3.175" fill="#fff" opacity=".426"/><ellipse cx="431.793" cy="1530.343" rx="2.369" ry="2.05" fill="#fff" opacity=".796"/><ellipse cx="512.105" cy="1490.986" rx="3.499" ry="3.261" fill="#fff" opacity=".157"/><ellipse cx="692.214" cy="1498.277" rx="2.701" ry="2.648" fill="#fff" opacity=".221"/><ellipse cx="864.952" cy="1494.257" rx="3.184" ry="2.807" fill="#fff" opacity=".639"/><ellipse cx="1044.115" cy="1616.39" rx="2.95" ry="2.609" fill="#fff" opacity=".402"/><ellipse cx="1277.61" cy="1616.862" rx="2.49" ry="2.143" fill="#fff" opacity=".808"/><ellipse cx="1397.679" cy="1519.295" rx="2.769" ry="2.352" fill="#fff" opacity=".34"/><ellipse cx="1547.389" cy="1530.335" rx="3.191" ry="2.995" fill="#fff" opacity=".241"/><ellipse cx="1699.281" cy="1514.791" rx="3.455" ry="2.972" fill="#fff" opacity=".477"/><ellipse cx="1823.808" cy="1493.26" rx="2.316" ry="1.855" fill="#fff" opacity=".009"/><ellipse cx="1932.525" cy="1543.361" rx="3.185" ry="2.72" fill="#fff" opacity="-.281"/><ellipse cx="2159.968" cy="1590.255" rx="3.453" ry="3.079" fill="#fff" opacity=".681"/><ellipse cx="2382.235" cy="1552.906" rx="3.281" ry="3.264" fill="#fff" opacity="-.006"/><ellipse cx="2542.907" cy="1597.565" rx="2.966" ry="2.8" fill="#fff" opacity=".728"/><ellipse cx="2584.186" cy="1561.078" rx="3.331" ry="2.847" fill="#fff" opacity="-.048"/><ellipse cx="2868.965" cy="1583.289" rx="2.155" ry="1.926" fill="#fff" opacity=".918"/><ellipse cx="3019.647" cy="1524.762" rx="1.949" ry="1.882" fill="#fff" opacity=".113"/><ellipse cx="3134.769" cy="1612.603" rx="2.441" ry="2.417" fill="#fff" opacity="-.128"/><ellipse cx="3333.149" cy="1566.54" rx="2.674" ry="2.234" fill="#fff" opacity=".243"/><ellipse cx="3405.618" cy="1516.619" rx="2.255" ry="2.122" fill="#fff" opacity="-.042"/><ellipse cx="3576.044" cy="1610.249" rx="2.726" ry="2.651" fill="#fff" opacity=".767"/><ellipse cx="3695.683" cy="1592.302" rx="2.006" ry="1.697" fill="#fff" opacity=".827"/><ellipse cx="157.052" cy="1667.853" rx="2.033" ry="1.745" fill="#fff" opacity=".702"/><ellipse cx="177.993" cy="1642.668" rx="2.148" ry="2.073" fill="#fff" opacity=".394"/><ellipse cx="393.233" cy="1726.748" rx="2.507" ry="2.294" fill="#fff" opacity=".971"/><ellipse cx="537.557" cy="1661.419" rx="2.244" ry="2.193" fill="#fff" opacity=".065"/><ellipse cx="645.783" cy="1633.352" rx="3.075" ry="3.004" fill="#fff" opacity=".283"/><ellipse cx="917.373" cy="1633.52" rx="3.196" ry="3.076" fill="#fff" opacity=".372"/><ellipse cx="1098.234" cy="1692.171" rx="2.519" ry="2.413" fill="#fff" opacity="-.016"/><ellipse cx="1255.482" cy="1667.288" rx="2.671" ry="2.605" fill="#fff" opacity=".284"/><ellipse cx="1308.582" cy="1684.776" rx="2.983" ry="2.72" fill="#fff" opacity=".076"/><ellipse cx="1443.376" cy="1730.781" rx="2.32" ry="2.104" fill="#fff" opacity=".455"/><ellipse cx="1692.585" cy="1684.294" rx="2.53" ry="2.366" fill="#fff" opacity=".648"/><ellipse cx="1828.401" cy="1711.082" rx="2.067" ry="1.797" fill="#fff" opacity=".25"/><ellipse cx="1930.702" cy="1739.77" rx="3.043" ry="2.808" fill="#fff" opacity=".82"/><ellipse cx="2096.679" cy="1709.558" rx="2.105" ry="1.984" fill="#fff" opacity=".3"/><ellipse cx="2380.953" cy="1658.207" rx="2.305" ry="2.121" fill="#fff" opacity=".515"/><ellipse cx="2511.125" cy="1753.721" rx="2.418" ry="1.959" fill="#fff" opacity=".279"/><ellipse cx="2678.821" cy="1659.932" rx="3.011" ry="2.741" fill="#fff" opacity=".462"/><ellipse cx="2731.957" cy="1736.184" rx="2.856" ry="2.537" fill="#fff" opacity=".121"/><ellipse cx="2945.632" cy="1650.634" rx="2.764" ry="2.51" fill="#fff" opacity=".424"/><ellipse cx="3076.637" cy="1713.078" rx="3.136" ry="2.816" fill="#fff" opacity="-.001"/><ellipse cx="3267.213" cy="1749.154" rx="2.412" ry="1.946" fill="#fff" opacity="-.026"/><ellipse cx="3474.495" cy="1676.307" rx="3.665" ry="3.265" fill="#fff" opacity=".08"/><ellipse cx="3643.447" cy="1735.646" rx="2.038" ry="1.969" fill="#fff" opacity=".099"/><ellipse cx="3716.419" cy="1640.137" rx="2.042" ry="1.882" fill="#fff" opacity=".262"/><ellipse cx="76.607" cy="1879.308" rx="3.332" ry="3.098" fill="#fff" opacity=".164"/><ellipse cx="248.623" cy="1778.868" rx="2.966" ry="2.647" fill="#fff" opacity=".227"/><ellipse cx="454.992" cy="1850.249" rx="2.189" ry="1.928" fill="#fff" opacity=".113"/><ellipse cx="525.629" cy="1855.3" rx="2.797" ry="2.606" fill="#fff" opacity=".308"/><ellipse cx="746.615" cy="1852.527" rx="2.188" ry="2.151" fill="#fff" opacity=".413"/><ellipse cx="894.114" cy="1887.441" rx="2.809" ry="2.384" fill="#fff" opacity=".043"/><ellipse cx="1041.397" cy="1789.89" rx="2.176" ry="1.899" fill="#fff" opacity=".216"/><ellipse cx="1149.508" cy="1837.207" rx="2.227" ry="2.001" fill="#fff" opacity="-.163"/><ellipse cx="1423.241" cy="1863.497" rx="3.641" ry="3.314" fill="#fff" opacity=".419"/><ellipse cx="1562.516" cy="1784.36" rx="3.477" ry="3.036" fill="#fff" opacity=".257"/><ellipse cx="1639.042" cy="1757.677" rx="2.791" ry="2.759" fill="#fff" opacity=".699"/><ellipse cx="1833.167" cy="1889.601" rx="2.452" ry="2.123" fill="#fff" opacity="-.08"/><ellipse cx="1972.259" cy="1849.195" rx="3.507" ry="3.245" fill="#fff" opacity="-.268"/><ellipse cx="2130.145" cy="1864.861" rx="2.289" ry="2.09" fill="#fff" opacity="-.24"/><ellipse cx="2256.341" cy="1812.297" rx="2.544" ry="2.258" fill="#fff" opacity="-.088"/><ellipse cx="2551.844" cy="1864.615" rx="2.911" ry="2.909" fill="#fff" opacity=".147"/><ellipse cx="2709.361" cy="1816.482" rx="2.417" ry="2.258" fill="#fff" opacity=".229"/><ellipse cx="2840.41" cy="1815.182" rx="2.841" ry="2.805" fill="#fff" opacity=".054"/><ellipse cx="2883.385" cy="1796.474" rx="2.53" ry="2.335" fill="#fff" opacity=".671"/><ellipse cx="3185.34" cy="1868.179" rx="2.968" ry="2.516" fill="#fff" opacity=".687"/><ellipse cx="3357.749" cy="1848.813" rx="3.721" ry="3.226" fill="#fff" opacity=".372"/><ellipse cx="3511.308" cy="1855.121" rx="2.476" ry="2.215" fill="#fff" opacity="-.219"/><ellipse cx="3577.387" cy="1767.106" rx="1.996" ry="1.888" fill="#fff" opacity="-.093"/><ellipse cx="3760.475" cy="1841.506" rx="2.312" ry="2.139" fill="#fff" opacity=".469"/><ellipse cx="49.827" cy="2005.357" rx="2.473" ry="2.08" fill="#fff" opacity=".915"/><ellipse cx="220.371" cy="2011.49" rx="2.973" ry="2.683" fill="#fff" opacity=".513"/><ellipse cx="331.055" cy="1924.679" rx="2.191" ry="1.892" fill="#fff" opacity=".55"/><ellipse cx="627.191" cy="1978.719" rx="3.158" ry="3.045" fill="#fff" opacity=".655"/><ellipse cx="754.903" cy="1996.117" rx="3.153" ry="2.762" fill="#fff" opacity=".72"/><ellipse cx="813.356" cy="1949.099" rx="2.595" ry="2.217" fill="#fff" opacity=".377"/><ellipse cx="1089.931" cy="2002.8" rx="3.315" ry="2.884" fill="#fff" opacity=".813"/><ellipse cx="1232.857" cy="2016.254" rx="3.333" ry="3.137" fill="#fff" opacity=".082"/><ellipse cx="1335.469" cy="1956.58" rx="3.71" ry="3.262" fill="#fff" opacity=".577"/><ellipse cx="1483.575" cy="1925.484" rx="2.378" ry="2.292" fill="#fff" opacity=".073"/><circle cx="1620.479" cy="1897.832" fill="#fff" opacity="-.196" r="1.965"/><ellipse cx="1773.213" cy="2009.657" rx="3.485" ry="3.02" fill="#fff" opacity=".653"/><ellipse cx="2054.03" cy="1908.891" rx="2.26" ry="1.876" fill="#fff" opacity=".637"/><ellipse cx="2118.167" cy="1941.35" rx="2.974" ry="2.873" fill="#fff" opacity=".617"/><ellipse cx="2271.639" cy="1960.643" rx="2.803" ry="2.614" fill="#fff" opacity=".224"/><ellipse cx="2502.881" cy="1949.478" rx="2.806" ry="2.598" fill="#fff" opacity=".205"/><ellipse cx="2693.522" cy="2016.67" rx="3.259" ry="3.047" fill="#fff" opacity=".338"/><ellipse cx="2773.019" cy="2024.731" rx="2.553" ry="2.473" fill="#fff" opacity=".53"/><ellipse cx="2957.148" cy="1957.568" rx="2.929" ry="2.554" fill="#fff" opacity=".161"/><ellipse cx="3042.145" cy="1953.278" rx="3.091" ry="2.759" fill="#fff" opacity=".437"/><ellipse cx="3217.847" cy="2001.994" rx="3.233" ry="3.174" fill="#fff" opacity="-.177"/><ellipse cx="3380.665" cy="1995.721" rx="3.457" ry="3.266" fill="#fff" opacity=".684"/><ellipse cx="3580.539" cy="1969.513" rx="2.508" ry="2.416" fill="#fff" opacity=".411"/><ellipse cx="3802.311" cy="2020.387" rx="2.521" ry="2.284" fill="#fff" opacity=".301"/><ellipse cx="159.734" cy="2063.451" rx="2.874" ry="2.459" fill="#fff" opacity=".284"/><ellipse cx="181.411" cy="2041.511" rx="2.463" ry="2.363" fill="#fff" opacity=".338"/><ellipse cx="342.73" cy="2060.218" rx="3.1" ry="2.88" fill="#fff" opacity=".86"/><ellipse cx="576.979" cy="2116.276" rx="3.384" ry="3.001" fill="#fff" opacity="-.074"/><ellipse cx="649.358" cy="2040.306" rx="1.91" ry="1.682" fill="#fff" opacity=".255"/><ellipse cx="938.49" cy="2028.311" rx="3.541" ry="3.07" fill="#fff" opacity=".525"/><ellipse cx="1027.709" cy="2052.134" rx="2.747" ry="2.429" fill="#fff" opacity=".56"/><ellipse cx="1198.81" cy="2091.657" rx="2.699" ry="2.416" fill="#fff" opacity="-.1"/><ellipse cx="1349.923" cy="2029.708" rx="3.533" ry="3.034" fill="#fff" opacity=".46"/><ellipse cx="1509.188" cy="2105.342" rx="2.521" ry="2.23" fill="#fff" opacity=".017"/><ellipse cx="1712.204" cy="2144.238" rx="2.709" ry="2.68" fill="#fff" opacity="-.107"/><ellipse cx="1896.124" cy="2109.3" rx="3.291" ry="3.029" fill="#fff" opacity=".613"/><ellipse cx="2076.169" cy="2091.205" rx="3.204" ry="2.818" fill="#fff" opacity=".806"/><ellipse cx="2143.768" cy="2095.923" rx="3.337" ry="3.222" fill="#fff" opacity=".112"/><ellipse cx="2362.021" cy="2076.981" rx="3.051" ry="3.007" fill="#fff" opacity=".252"/><ellipse cx="2460.498" cy="2098.281" rx="2.409" ry="2.125" fill="#fff" opacity=".649"/><ellipse cx="2604.627" cy="2094.148" rx="3.337" ry="3.076" fill="#fff" opacity=".374"/><ellipse cx="2875.658" cy="2052.314" rx="2.559" ry="2.489" fill="#fff" opacity=".029"/><ellipse cx="2966.446" cy="2093.656" rx="2.927" ry="2.899" fill="#fff" opacity=".624"/><ellipse cx="3058.114" cy="2074.921" rx="3.29" ry="2.962" fill="#fff" opacity="-.084"/><ellipse cx="3353.715" cy="2113.068" rx="3.029" ry="3.006" fill="#fff" opacity=".298"/><ellipse cx="3387.522" cy="2039.216" rx="2.664" ry="2.451" fill="#fff" opacity=".827"/><ellipse cx="3654.211" cy="2035.462" rx="2.843" ry="2.754" fill="#fff" opacity="-.1"/><ellipse cx="3694.719" cy="2131.413" rx="2.343" ry="1.98" fill="#fff" opacity=".712"/><g transform="rotate(-70.753 492.293 56.543)"><defs><linearGradient id="a" x1="0" y1="1" x2="430.658" y2="1" gradientUnits="userSpaceOnUse"><stop stop-color="#fff"/><stop offset=".3" stop-color="#fff" stop-opacity=".1"/><stop offset=".7" stop-color="#fff" stop-opacity="0"/></linearGradient></defs><rect x="-21.533" y="-10.1" width="172.263" height="20.2" rx="20.2" ry="20.2" fill="url(#a)" filter="url(#b)" opacity=".4"/><rect width="258.395" height="5.6" rx="5.6" ry="5.6" fill="url(#a)"/></g><g transform="rotate(-77.704 1971.758 -1908.73)" fill="url(#a)"><rect x="-21.132" y="-10.1" width="169.06" height="20.2" rx="20.2" ry="20.2" filter="url(#b)" opacity=".4"/><rect width="253.59" height="5.6" rx="5.6" ry="5.6"/></g><g transform="rotate(-74.971 1367.18 -162.706)" fill="url(#a)"><rect x="-20.861" y="-10.1" width="166.889" height="20.2" rx="20.2" ry="20.2" filter="url(#b)" opacity=".4"/><rect width="250.333" height="5.6" rx="5.6" ry="5.6"/></g><g transform="rotate(-78.493 2878.339 -941.55)" fill="url(#a)"><rect x="-17.467" y="-10.1" width="139.737" height="20.2" rx="20.2" ry="20.2" filter="url(#b)" opacity=".4"/><rect width="209.605" height="5.6" rx="5.6" ry="5.6"/></g></svg>